<svg xmlns="http://www.w3.org/2000/svg" class="leaflet-zoom-animated" width="1976" height="1113" viewBox="-277 -156 1976 1113" style="transform: translate3d(-277px, -156px, 0px);"><g><path stroke-linejoin="round" stroke-linecap="round" fill-rule="evenodd" stroke="#333" stroke-opacity="1" stroke-width="1" fill="transparent" fill-opacity="0.2" class="leaflet-clickable" d="M644 568L640 572L634 573L633 576L635 578L633 581L631 581L634 585L628 591L630 592L632 596L631 597L633 598L632 601L629 599L623 602L620 606L619 605L618 608L616 606L614 609L613 607L609 607L606 599L613 595L610 586L615 585L613 578L617 571L615 569L617 569L619 566L615 557L620 555L616 548L617 546L619 546L613 541L608 539L606 540L596 530L593 529L593 527L590 528L585 517L580 512L582 507L582 502L580 501L580 499L583 498L581 496L580 497L580 492L572 489L570 485L568 488L564 490L561 489L561 491L559 490L555 493L556 485L554 482L551 482L548 478L548 470L551 467L542 464L542 461L538 463L537 459L533 455L528 458L523 453L520 451L519 452L519 447L517 443L521 437L518 433L515 435L518 430L514 427L512 423L518 417L519 411L517 412L517 415L511 419L508 416L506 416L505 419L504 417L503 418L502 415L497 417L496 415L496 417L494 413L493 415L491 412L490 399L493 396L492 395L495 393L491 382L494 380L494 377L492 374L490 374L490 369L488 370L487 367L485 368L481 360L484 357L487 359L492 357L495 358L497 357L498 354L490 348L489 350L486 347L488 343L481 339L481 335L483 335L484 333L485 334L485 330L481 323L485 319L486 320L486 317L495 310L493 308L496 305L497 306L511 300L516 303L522 298L523 295L525 298L527 299L530 297L531 299L532 294L527 289L539 282L544 283L555 276L556 277L562 275L565 270L564 269L567 267L568 270L570 270L570 272L575 270L579 271L582 276L580 273L584 273L588 270L587 269L591 265L591 267L594 268L606 262L609 265L620 261L614 255L611 255L610 257L605 251L608 249L617 251L618 248L623 247L624 244L629 243L634 243L633 245L636 246L642 239L644 243L648 243L650 246L655 243L668 240L670 243L679 234L679 231L681 229L694 229L699 240L706 245L705 249L710 251L709 256L711 257L713 254L721 254L723 261L728 262L730 272L738 274L739 272L742 272L747 268L754 268L753 264L751 263L753 261L754 258L752 257L753 255L754 256L755 252L752 252L752 248L754 248L756 245L756 238L762 241L764 232L771 232L771 238L775 238L775 235L777 236L780 234L776 226L771 223L771 218L779 213L780 209L776 200L778 195L777 190L780 187L778 183L779 182L775 176L778 176L778 174L780 173L780 175L786 173L787 176L789 176L790 174L793 173L793 170L798 170L796 168L798 167L797 165L799 163L800 167L804 167L806 163L808 165L810 164L815 158L823 152L825 155L827 155L828 152L831 153L839 149L843 151L846 148L848 148L854 150L855 152L858 152L859 155L862 155L861 157L865 160L865 162L868 162L869 165L877 164L879 168L884 168L888 172L889 178L893 178L894 175L896 175L897 179L901 175L902 177L911 176L914 179L919 177L919 182L921 183L922 188L921 193L927 199L929 206L933 208L933 211L936 212L933 214L935 214L940 219L940 224L942 224L944 227L942 227L943 231L940 237L935 237L928 242L924 258L926 273L934 286L932 297L935 304L934 313L932 316L934 318L936 325L930 327L926 334L919 333L917 335L912 333L906 338L901 334L901 332L896 332L890 335L878 337L878 332L874 332L875 333L869 330L862 330L861 325L859 326L860 324L855 322L858 326L850 323L846 325L847 327L838 331L835 329L829 329L827 327L824 331L825 332L822 332L820 336L821 338L826 340L826 342L822 344L821 350L825 354L822 360L824 362L830 360L833 362L832 368L834 372L833 374L827 377L831 383L830 388L835 393L831 395L829 403L830 406L835 407L836 412L831 415L830 422L828 424L822 425L820 423L818 424L818 422L808 424L805 421L799 419L799 423L797 423L795 427L794 422L792 422L785 424L783 428L774 428L774 433L769 435L770 437L768 439L765 436L762 439L756 450L747 459L745 464L745 469L749 474L751 481L751 484L749 485L753 491L751 494L753 494L752 498L745 500L744 499L742 501L742 505L741 504L737 506L733 504L725 505L725 503L722 503L720 505L719 503L713 503L709 512L709 514L711 515L709 516L709 521L712 525L710 527L712 527L711 528L714 532L717 545L719 545L720 547L721 546L720 548L723 554L722 556L724 556L725 561L724 574L722 577L723 578L718 585L721 588L718 595L721 597L720 598L723 601L723 605L729 606L729 608L733 610L737 620L742 618L745 624L744 625L747 626L748 631L742 635L737 635L737 637L732 640L729 640L729 642L725 644L716 646L711 640L705 646L693 651L690 654L688 653L687 650L677 645L666 634L663 633L661 629L662 627L668 625L668 617L656 617L653 614L656 608L654 608L654 606L652 605L653 601L649 596L646 595L647 591L644 587L646 583L645 569z"/></g><g><path stroke-linejoin="round" stroke-linecap="round" fill-rule="evenodd" stroke="#333" stroke-opacity="1" stroke-width="1" fill="transparent" fill-opacity="0.2" class="leaflet-clickable" d="M875 333L875 333z"/></g><g><path stroke-linejoin="round" stroke-linecap="round" fill-rule="evenodd" stroke="#333" stroke-opacity="1" stroke-width="1" fill="transparent" fill-opacity="0.2" class="leaflet-clickable" d="M875 333L875 333z"/></g><g><path stroke-linejoin="round" stroke-linecap="round" fill-rule="evenodd" stroke="#999" stroke-opacity="1" stroke-width="1" stroke-dasharray="1,6" fill="transparent" fill-opacity="0.2" class="leaflet-clickable" d="M629 489L627 497L627 508L630 511L636 512L641 505L648 506L650 504L653 505L653 503L658 508L658 510L655 510L654 515L665 515L668 518L663 525L666 529L664 530L665 533L663 535L663 539L662 538L657 543L655 542L655 544L649 544L651 548L649 551L653 554L657 554L656 558L654 559L654 566L650 568L650 566L644 568L640 572L634 573L633 576L635 578L633 581L631 581L634 585L628 591L623 585L623 588L619 590L618 587L620 584L619 581L621 578L620 576L624 564L621 561L623 559L621 558L624 556L624 553L622 551L624 549L622 547L628 538L628 536L626 536L627 531L623 527L618 527L614 531L610 531L608 525L611 525L609 522L612 521L612 516L619 513L621 510L622 495L626 492L627 493L627 489z"/></g><g><path stroke-linejoin="round" stroke-linecap="round" fill-rule="evenodd" stroke="#999" stroke-opacity="1" stroke-width="1" fill="transparent" fill-opacity="0.2" class="leaflet-clickable" d="M618 494L618 491L620 491L619 486L611 486L615 482L615 479L608 469L599 480L597 480L595 475L590 477L590 472L588 469L586 469L586 467L582 468L579 475L577 475L574 472L575 464L573 460L572 449L568 440L569 436L565 428L563 428L564 423L575 423L581 429L580 431L585 441L586 439L592 442L594 440L596 442L597 441L601 443L599 444L607 440L610 442L612 441L609 433L611 426L609 426L609 424L612 421L609 418L611 417L610 415L618 415L623 413L627 409L628 412L632 413L636 409L635 408L642 403L645 404L647 401L647 403L650 402L655 406L658 405L659 409L660 408L663 409L664 412L668 411L671 413L668 427L671 434L671 440L673 442L671 444L669 442L667 443L664 440L662 441L662 443L653 443L654 442L653 443L652 441L647 450L644 449L643 447L638 453L640 455L640 460L642 462L642 468L646 466L652 466L651 474L653 474L653 476L657 476L660 480L655 487L653 483L647 482L646 485L644 484L641 486L641 478L639 479L637 477L629 477L629 488L626 491L627 493L626 492L622 495L618 494z" stroke-dasharray="1,6"/></g><g><path stroke-linejoin="round" stroke-linecap="round" fill-rule="evenodd" stroke="#999" stroke-opacity="1" stroke-width="1" stroke-dasharray="1,6" fill="transparent" fill-opacity="0.2" class="leaflet-clickable" d="M622 495L622 510L619 513L612 516L612 522L609 522L611 525L609 525L610 531L614 531L618 527L623 527L627 531L626 536L628 536L628 538L626 539L628 541L622 547L624 549L622 551L624 552L624 556L621 558L623 559L621 561L624 564L620 576L621 578L619 581L620 584L618 590L622 588L623 585L630 592L632 596L631 597L633 598L632 601L629 599L623 602L620 606L619 605L618 608L616 606L614 609L613 607L612 608L608 606L606 599L613 595L610 586L615 585L613 578L617 571L615 569L617 569L619 566L615 557L620 555L616 548L617 546L619 546L613 541L608 539L606 540L596 530L593 529L593 527L590 528L607 507L614 501L618 494L620 495z"/></g><g><path stroke-linejoin="round" stroke-linecap="round" fill-rule="evenodd" stroke="#999" stroke-opacity="1" stroke-width="1" stroke-dasharray="1,6" fill="transparent" fill-opacity="0.2" class="leaflet-clickable" d="M666 529L664 523L668 518L665 515L654 515L655 511L658 508L653 503L653 505L650 504L648 506L641 505L636 512L630 511L627 508L627 497L629 493L629 477L637 477L639 479L641 478L641 486L643 484L646 485L647 482L653 483L655 487L658 484L661 484L658 491L660 491L660 493L666 487L668 488L671 485L677 485L678 489L688 484L692 489L703 486L708 488L712 494L711 498L713 502L709 512L709 514L711 515L709 516L708 526L702 527L702 523L699 525L697 524L699 523L697 523L696 520L694 521L690 519L690 521L685 520L683 523L679 522L677 525L673 526L672 529L668 529z"/></g><g><path stroke-linejoin="round" stroke-linecap="round" fill-rule="evenodd" stroke="#999" stroke-opacity="1" stroke-width="1" stroke-dasharray="1,6" fill="transparent" fill-opacity="0.2" class="leaflet-clickable" d="M575 473L579 475L580 471L584 467L586 467L586 469L588 469L590 472L589 476L590 477L595 475L597 480L599 480L608 469L610 472L611 471L615 479L615 482L611 486L619 486L620 491L618 491L614 501L607 507L590 527L585 517L580 512L582 507L582 502L580 501L580 499L583 498L581 496L580 497L580 492L577 491L574 482L575 474z"/></g><g><path stroke-linejoin="round" stroke-linecap="round" fill-rule="evenodd" stroke="#999" stroke-opacity="1" stroke-width="1" stroke-dasharray="1,6" fill="transparent" fill-opacity="0.2" class="leaflet-clickable" d="M644 568L649 566L650 568L653 566L655 562L654 559L656 558L655 556L657 554L653 554L650 551L651 548L649 544L655 544L655 542L657 543L662 538L663 539L663 535L665 533L664 530L672 529L674 525L682 523L685 520L696 520L697 523L699 522L697 523L699 525L702 523L703 524L702 527L708 526L709 521L712 525L710 527L712 527L711 528L714 532L717 545L719 545L720 547L721 546L720 548L723 554L722 556L724 556L725 561L724 574L722 577L723 578L718 585L721 588L718 595L721 597L720 598L723 601L723 605L729 606L729 608L733 610L737 620L742 618L745 624L744 625L747 626L748 631L742 635L737 635L737 637L732 640L729 640L729 642L725 644L716 646L711 640L705 646L693 651L690 654L688 653L687 650L677 645L666 634L663 633L661 629L662 627L668 625L668 617L656 617L653 614L656 608L654 608L654 606L652 605L653 601L649 596L646 595L647 591L644 587L646 583L645 569z"/></g><g><path stroke-linejoin="round" stroke-linecap="round" fill-rule="evenodd" stroke="#999" stroke-opacity="1" stroke-width="1" fill="transparent" fill-opacity="0.2" class="leaflet-clickable" d="M713 503L711 498L712 494L707 487L703 486L690 489L690 485L688 484L678 489L679 486L671 485L668 488L666 487L661 493L660 491L658 491L661 486L661 484L659 484L660 478L657 476L653 476L653 474L651 474L652 466L647 466L643 468L641 465L642 462L640 460L640 456L638 453L643 447L647 450L652 441L653 443L662 443L662 441L664 440L667 443L670 443L671 445L673 442L671 440L671 434L668 429L671 414L671 403L669 401L669 397L674 389L672 385L680 384L680 387L682 388L683 385L687 385L695 381L699 377L703 379L704 377L706 377L706 368L709 367L712 367L711 373L713 373L715 376L713 377L714 379L719 381L719 383L722 385L726 384L730 380L736 379L735 372L734 370L733 371L730 369L730 366L736 365L736 367L739 367L739 369L744 369L745 366L743 362L745 359L745 355L743 352L745 353L753 351L763 341L774 339L785 334L792 335L796 338L807 335L817 336L820 334L821 338L826 340L826 342L822 344L821 350L825 354L822 360L824 362L830 360L833 362L832 368L834 372L833 374L827 377L831 383L830 388L835 393L831 395L829 403L830 406L835 407L836 412L831 415L830 422L828 424L822 425L820 423L818 424L818 422L808 424L805 421L799 419L799 423L797 423L795 427L794 422L792 422L785 424L783 428L774 428L774 433L769 435L770 437L768 439L765 436L762 439L756 450L747 459L745 464L745 469L749 474L751 481L751 484L749 485L753 491L751 494L753 494L752 498L745 500L744 499L742 501L742 505L741 504L737 506L733 504L725 505L725 503L722 503L720 505L719 503L716 503z" stroke-dasharray="1,6"/></g><g><path stroke-linejoin="round" stroke-linecap="round" fill-rule="evenodd" stroke="#999" stroke-opacity="1" stroke-width="1" fill="transparent" fill-opacity="0.2" class="leaflet-clickable" d="M577 490L572 489L570 485L568 488L564 490L561 489L561 491L559 490L555 493L556 485L554 482L551 482L548 478L548 470L551 467L542 464L542 461L538 463L537 459L533 455L528 458L523 453L520 451L519 452L519 447L517 443L521 437L518 433L515 435L518 430L514 427L512 423L518 417L519 411L517 412L517 415L511 419L508 416L506 416L505 419L504 417L503 418L502 415L497 417L496 415L496 417L494 413L493 415L491 412L490 399L493 396L492 395L495 393L491 382L494 380L494 377L492 374L490 374L490 369L488 370L487 367L485 368L481 360L484 357L487 359L492 357L495 358L497 357L498 354L490 348L489 350L486 347L488 343L481 339L481 335L483 335L484 333L485 334L485 330L481 323L485 319L486 320L486 317L495 310L493 308L496 305L497 306L511 300L516 303L522 298L523 295L525 298L527 299L530 297L531 299L532 294L527 289L539 282L544 283L555 276L556 277L562 275L565 270L564 269L567 267L568 270L570 270L570 272L575 270L579 271L582 276L580 273L584 273L588 270L587 269L591 265L591 267L594 268L606 262L609 265L620 261L614 255L611 255L610 257L605 251L608 249L617 251L618 248L623 247L624 244L629 243L634 243L633 245L636 246L642 239L644 243L648 243L650 246L655 243L668 240L670 243L679 234L679 231L681 229L694 229L699 240L702 243L699 250L701 254L696 254L693 258L695 258L697 261L696 263L695 262L692 265L692 262L691 264L689 264L690 266L687 268L688 272L686 274L680 274L681 275L679 277L680 276L681 279L679 281L680 282L677 284L679 288L674 292L675 294L666 300L666 302L658 302L649 306L649 310L638 320L639 323L636 327L627 334L634 345L628 350L628 352L632 355L630 357L632 358L632 360L631 362L630 361L629 366L625 367L624 370L626 375L628 375L627 377L632 377L634 382L636 382L637 386L639 386L636 390L638 393L639 392L638 395L640 397L640 400L639 399L642 403L635 408L636 409L632 414L631 412L629 412L628 409L618 415L610 415L611 416L608 418L612 420L609 423L609 426L611 426L609 433L612 441L610 442L608 440L600 444L600 442L599 443L598 441L597 442L594 440L592 442L586 439L585 441L582 437L583 435L580 432L581 429L579 426L575 423L564 423L563 428L566 430L569 436L568 440L572 449L573 460L575 464L574 482L577 488z" stroke-dasharray="1,6"/></g><g><path stroke-linejoin="round" stroke-linecap="round" fill-rule="evenodd" stroke="#999" stroke-opacity="1" stroke-width="1" stroke-dasharray="1,6" fill="transparent" fill-opacity="0.2" class="leaflet-clickable" d="M820 334L820 329L812 321L807 320L810 317L805 310L803 301L799 300L799 297L795 295L794 293L796 292L796 290L788 291L786 288L778 286L773 281L775 274L764 272L761 274L757 268L754 268L753 264L751 263L753 261L754 258L752 257L753 255L754 256L755 252L752 252L752 248L754 248L756 245L756 238L762 241L764 232L771 232L771 238L775 238L775 235L777 236L780 234L776 226L771 223L771 218L779 213L780 209L776 200L778 195L777 190L780 187L778 183L779 182L775 176L778 176L778 174L780 173L780 175L786 173L787 176L789 176L790 174L793 173L793 170L798 170L796 168L798 167L797 165L799 163L800 167L804 167L806 163L808 165L810 164L815 158L823 152L825 155L827 155L828 152L831 153L839 149L843 151L846 148L848 148L854 150L855 152L858 152L859 155L862 155L861 157L865 160L865 162L868 162L869 165L877 164L879 168L884 168L888 172L889 178L893 178L894 175L896 175L897 179L901 175L902 177L911 176L914 179L919 177L919 182L921 183L922 188L921 193L927 199L929 206L933 208L933 211L936 212L933 214L935 214L940 219L940 224L942 224L944 227L942 227L943 231L940 237L935 237L928 242L924 258L926 273L934 286L932 297L935 304L934 313L932 316L934 318L936 325L930 327L926 334L919 333L917 335L912 333L906 338L901 334L901 332L896 332L890 335L878 337L878 332L874 332L875 333L869 330L862 330L861 325L859 326L860 324L855 322L858 326L850 323L846 325L847 327L838 331L835 329L829 329L827 327L824 331L825 332L822 332z"/></g><g><path stroke-linejoin="round" stroke-linecap="round" fill-rule="evenodd" stroke="#999" stroke-opacity="1" stroke-width="1" stroke-dasharray="1,6" fill="transparent" fill-opacity="0.2" class="leaflet-clickable" d="M787 290L791 292L788 292L786 294L785 293L787 290L785 290L786 291L784 288L786 289z"/></g><g><path stroke-linejoin="round" stroke-linecap="round" fill-rule="evenodd" stroke="#999" stroke-opacity="1" stroke-width="1" stroke-dasharray="1,6" fill="transparent" fill-opacity="0.2" class="leaflet-clickable" d="M875 333L876 333z"/></g><g><path stroke-linejoin="round" stroke-linecap="round" fill-rule="evenodd" stroke="#999" stroke-opacity="1" stroke-width="1" stroke-dasharray="1,6" fill="transparent" fill-opacity="0.2" class="leaflet-clickable" d="M875 333L875 333z"/></g><g><path stroke-linejoin="round" stroke-linecap="round" fill-rule="evenodd" stroke="#999" stroke-opacity="1" stroke-width="1" stroke-dasharray="1,6" fill="transparent" fill-opacity="0.2" class="leaflet-clickable" d="M820 334L818 336L807 335L798 338L789 334L785 334L760 343L753 351L743 352L745 359L743 364L745 368L739 369L739 367L737 367L736 365L730 366L730 369L735 371L736 379L732 381L730 380L726 384L720 385L719 381L714 380L713 377L715 376L711 373L712 368L710 367L706 368L706 377L704 377L703 379L696 379L695 381L687 385L683 385L682 388L680 387L680 384L673 384L672 385L674 389L669 397L669 401L671 402L671 412L664 412L664 409L659 409L658 404L655 406L651 405L650 403L647 403L647 401L645 404L642 403L639 399L640 400L638 395L639 392L638 393L636 391L639 386L637 386L632 377L629 379L628 375L626 375L625 373L624 368L626 366L629 366L630 361L631 362L632 360L631 353L628 353L634 345L627 334L637 326L639 323L638 320L649 310L648 308L650 305L658 302L666 302L667 299L675 294L674 292L679 288L677 284L680 282L679 281L681 279L680 276L679 277L681 275L680 274L686 274L688 272L687 268L690 266L689 264L691 264L691 262L692 264L694 262L696 263L697 261L695 258L693 258L696 254L701 253L699 250L702 243L701 242L703 242L706 245L705 249L710 251L709 256L711 257L713 254L722 255L723 261L728 262L730 272L738 274L739 272L742 272L747 268L757 268L761 274L764 272L775 274L773 281L778 286L781 287L783 291L786 290L786 294L788 292L791 292L787 290L792 291L796 289L796 291L794 292L795 295L798 296L799 299L803 301L805 310L807 314L810 316L807 320L812 321L820 329z"/></g><g><path stroke-linejoin="round" stroke-linecap="round" fill-rule="evenodd" stroke="#999" stroke-opacity="1" stroke-width="1" stroke-dasharray="1,6" fill="transparent" fill-opacity="0.2" class="leaflet-clickable" d="M781 287L784 287L787 290L783 288L785 290L783 291L782 288z"/></g></svg>